
		<svg xmlns="http://www.w3.org/2000/svg" xmlns:xlink="http://www.w3.org/1999/xlink" version="1.1" width="3130.1518438177873" height="911.0629067245119">
			
			<g transform="scale(6.507592190889371) translate(10, 10)">
				<defs id="SvgjsDefs2731"><linearGradient id="SvgjsLinearGradient2736"><stop id="SvgjsStop2737" stop-color="#b88746" offset="0"/><stop id="SvgjsStop2738" stop-color="#fdf5a6" offset="1"/></linearGradient><linearGradient id="SvgjsLinearGradient2739"><stop id="SvgjsStop2740" stop-color="#b88746" offset="0"/><stop id="SvgjsStop2741" stop-color="#fdf5a6" offset="1"/></linearGradient><linearGradient id="SvgjsLinearGradient2742"><stop id="SvgjsStop2743" stop-color="#b88746" offset="0"/><stop id="SvgjsStop2744" stop-color="#fdf5a6" offset="1"/></linearGradient></defs><g id="SvgjsG2732" featureKey="root" fill="#fff"/><g id="SvgjsG2733" featureKey="symbol1" fill="#fff" transform="matrix(1.1879652587386764,0,0,1.1879652587386764,-15.883221776221077,2.1431236824405957)"><g xmlns="http://www.w3.org/2000/svg" transform="translate(0,-952.36218)"><path d="m 57.997851,988.43803 -16.037364,14.80367 9.652814,9.7242 a 2.2066031,2.2066031 0 0 1 0.652785,1.306 l 28.446057,-0.072 -22.714292,-25.76133 z m -23.802748,13.35217 -12.407246,12.4092 8.199609,0 -0.07237,0.072 12.045392,0 4.71568,0 -12.479617,-12.4816 z" style="" fill="url(#SvgjsLinearGradient2742)" fill-opacity="1" stroke="none"/></g></g><g id="SvgjsG2734" featureKey="text1" fill="#fff" transform="matrix(4.116628916223596,0,0,4.116628916223596,96.13036858319443,-26.55565739532979)"><path d="M8.34 9.48 q3.2 0 5.28 2.1 t2.12 5.34 q-0.02 3.3 -2.14 5.36 t-5.26 2.08 q-3.2 0 -5.28 -2.11 t-2.12 -5.33 q0 -3.2 2.08 -5.3 t5.32 -2.14 z M2.74 16.92 q0 2.54 1.6 4.19 t4 1.69 q2.4 0 3.98 -1.68 t1.62 -4.2 q0 -2.46 -1.56 -4.15 t-4.06 -1.73 q-2.44 0.02 -3.99 1.71 t-1.59 4.17 z M22.759999999999998 14.4 q1.76 0 2.66 1.02 t0.9 2.72 l0 5.86 l-1.56 0 l0 -5.68 q0 -1.08 -0.5 -1.77 t-1.64 -0.71 q-1.44 0 -2.17 0.95 t-0.73 2.63 l0 4.58 l-1.56 0 l0 -7.28 q0 -0.1 -0.08 -2.08 l1.48 0 q0.04 1.4 0.04 1.54 l0.04 0 q0.38 -0.8 1.23 -1.29 t1.89 -0.49 z M39.06 9.84 l0 1.56 l-4.68 0 l0 12.6 l-1.68 0 l0 -12.6 l-4.68 0 l0 -1.56 l11.04 0 z M42.32 8.88 l0 7.06 l0.04 0 q0.42 -0.7 1.24 -1.12 t1.78 -0.42 q1.76 0 2.65 1.02 t0.89 2.72 l0 5.86 l-1.56 0 l0 -5.68 q0 -1.08 -0.5 -1.77 t-1.64 -0.71 q-1.44 0 -2.17 0.95 t-0.73 2.57 l0 4.64 l-1.56 0 l0 -15.12 l1.56 0 z M56.14000000000001 14.4 q2.08 0 3.25 1.31 t1.19 3.71 l0 0.38 l-7.56 0 q0.12 1.3 0.98 2.14 t2.1 0.86 q1.9 0 2.96 -1.42 l1.18 0.92 q-0.74 0.96 -1.74 1.45 t-2.4 0.49 q-2.14 0 -3.44 -1.39 t-1.32 -3.53 q0 -2.12 1.33 -3.5 t3.47 -1.42 z M58.900000000000006 18.48 q-0.06 -1.22 -0.79 -1.93 t-2.05 -0.71 q-1.2 0 -2.02 0.68 t-1.02 1.96 l5.88 0 z M64.96000000000001 9.84 l0 6 l7.56 0 l0 -6 l1.68 0 l0 14.16 l-1.68 0 l0 -6.6 l-7.56 0 l0 6.6 l-1.68 0 l0 -14.16 l1.68 0 z M78.36000000000001 9.84 q0.46 0 0.8 0.33 t0.34 0.81 q0 0.5 -0.32 0.82 t-0.82 0.32 t-0.82 -0.32 t-0.32 -0.82 q0 -0.48 0.34 -0.81 t0.8 -0.33 z M79.14000000000001 14.64 l0 9.36 l-1.56 0 l0 -9.36 l1.56 0 z M83.94000000000001 8.88 l0 15.12 l-1.56 0 l0 -15.12 l1.56 0 z M88.74000000000001 8.88 l0 15.12 l-1.56 0 l0 -15.12 l1.56 0 z"/></g><g id="SvgjsG2735" featureKey="text3" fill="#fff" transform="matrix(1.7477756028346818,0,0,1.7477756028346818,98.67168722489632,72.4310914188128)"><path d="M5.9 9.48 q2.58 0 3.96 1.66 l-1.38 1.2 q-0.8 -1.26 -2.58 -1.3 q-1.34 0 -2.18 0.64 t-0.84 1.74 q0 0.96 0.64 1.52 t2.4 1.1 q2.28 0.66 3.23 1.61 t0.95 2.57 q0 1.88 -1.4 3 t-3.58 1.14 q-1.46 0 -2.6 -0.52 t-1.76 -1.44 l1.44 -1.18 q0.46 0.76 1.28 1.17 t1.74 0.41 q1.26 0 2.17 -0.71 t0.91 -1.75 q0 -0.94 -0.53 -1.48 t-1.75 -0.92 l-1.62 -0.54 q-1.82 -0.62 -2.57 -1.55 t-0.75 -2.29 q0 -1.8 1.34 -2.93 t3.48 -1.15 z M22.380000000000003 9.84 l0 1.56 l-4.68 0 l0 12.6 l-1.68 0 l0 -12.6 l-4.68 0 l0 -1.56 l11.04 0 z M25.98 9.84 l0 8.52 q0 2.16 0.92 3.28 t2.74 1.16 q1.82 -0.02 2.73 -1.15 t0.93 -3.21 l0 -8.6 l1.68 0 l0 8.82 q0 2.7 -1.4 4.19 t-3.94 1.51 q-2.5 0 -3.91 -1.51 t-1.43 -4.21 l0 -8.8 l1.68 0 z M43.46 9.84 q3.1 0 5.08 1.95 t2.02 5.13 q0 3.16 -1.99 5.1 t-5.07 1.98 l-5.32 0 l0 -14.16 l5.28 0 z M43.06 22.44 q2.66 0 4.17 -1.41 t1.53 -4.11 q0 -2.6 -1.48 -4.04 t-4.22 -1.48 l-3.2 0 l0 11.04 l3.2 0 z M54.94 9.84 l0 14.16 l-1.68 0 l0 -14.16 l1.68 0 z M65.04 9.48 q3.2 0 5.28 2.1 t2.12 5.34 q-0.02 3.3 -2.14 5.36 t-5.26 2.08 q-3.2 0 -5.28 -2.11 t-2.12 -5.33 q0 -3.2 2.08 -5.3 t5.32 -2.14 z M59.440000000000005 16.92 q0 2.54 1.6 4.19 t4 1.69 q2.4 0 3.98 -1.68 t1.62 -4.2 q0 -2.46 -1.56 -4.15 t-4.06 -1.73 q-2.44 0.02 -3.99 1.71 t-1.59 4.17 z M79.28 9.48 q2.58 0 3.96 1.66 l-1.38 1.2 q-0.8 -1.26 -2.58 -1.3 q-1.34 0 -2.18 0.64 t-0.84 1.74 q0 0.96 0.64 1.52 t2.4 1.1 q2.28 0.66 3.23 1.61 t0.95 2.57 q0 1.88 -1.4 3 t-3.58 1.14 q-1.46 0 -2.6 -0.52 t-1.76 -1.44 l1.44 -1.18 q0.46 0.76 1.28 1.17 t1.74 0.41 q1.26 0 2.17 -0.71 t0.91 -1.75 q0 -0.94 -0.53 -1.48 t-1.75 -0.92 l-1.62 -0.54 q-1.82 -0.62 -2.57 -1.55 t-0.75 -2.29 q0 -1.8 1.34 -2.93 t3.48 -1.15 z"/></g>
			</g>
		</svg>
	